<svg width="24" height="24" viewBox="0 0 24 24" fill="none" xmlns="http://www.w3.org/2000/svg">
<path fill-rule="evenodd" clip-rule="evenodd" d="M12.3467 7.728V9.99066C12.8205 9.2689 13.4736 8.68253 14.2421 8.28894C15.0106 7.89536 15.8681 7.70804 16.7307 7.74533C21.3373 7.74533 22.3333 10.6253 22.3333 14.372V22H18.0666V15.2373C18.0666 13.624 17.7413 11.5493 15.2293 11.5493C12.7934 11.5493 12.3774 13.3053 12.3774 15.1173V22H8.12408V7.728H12.3467ZM5.26678 4.14133C5.26625 4.564 5.14096 4.97711 4.90662 5.32887C4.67228 5.68062 4.33931 5.95537 3.94946 6.11867C3.55976 6.28064 3.13069 6.32301 2.71685 6.24038C2.303 6.15776 1.9231 5.95387 1.62548 5.65467C1.3273 5.35528 1.1243 4.97441 1.04201 4.55996C0.959713 4.1455 1.0018 3.71597 1.16297 3.32537C1.32413 2.93477 1.59719 2.60054 1.94781 2.36472C2.29842 2.12889 2.71093 2.002 3.13346 2C3.41429 2 3.69235 2.05544 3.9517 2.16315C4.21105 2.27086 4.44658 2.42872 4.64478 2.62766C4.84298 2.82661 4.99995 3.06273 5.10669 3.32248C5.21343 3.58224 5.26783 3.86051 5.26678 4.14133Z" fill="#1C1C21"/>
<path d="M5.26662 7.74536H1V22H5.26662V7.74536Z" fill="#1C1C21"/>
</svg>
